# xmcd CD database file
#
# Track frame offsets:
#	150
#	20262
#	33356
#	48950
#	68580
#	87354
#	103171
#	115344
#	136482
#	157244
#	180022
#	198723
#	217786
#	238534
#	252600
#	269602
#
# Disc length: 3869 seconds
#
# Revision: 1
# Processed by: cddbd v1.5.2PL0 Copyright (c) Steve Scherf et al.
# Submitted via: CDex 1.70beta2
#
DISCID=e00f1b10
DTITLE=Cuatro por Quatro - Rico Vacilon
DYEAR=2009
DGENRE=Salsa
TTITLE0=El Traguito
TTITLE1=Que Mas Da
TTITLE2=Capullito De Aleli
TTITLE3=Chan Chan
TTITLE4=Hasta Siempre, Comandante
TTITLE5=Amorosa Guajira
TTITLE6=Margarita
TTITLE7=Guantanamera
TTITLE8=Rico Vacilon
TTITLE9=Yolanda
TTITLE10=Besame Mucho
TTITLE11=Moliendo Cafe
TTITLE12=Yo
TTITLE13=Obsession
TTITLE14=Cachita
TTITLE15=La Pareja Ideal
EXTD=YEAR: 2009
EXTT0=
EXTT1=
EXTT2=
EXTT3=
EXTT4=
EXTT5=
EXTT6=
EXTT7=
EXTT8=
EXTT9=
EXTT10=
EXTT11=
EXTT12=
EXTT13=
EXTT14=
EXTT15=
PLAYORDER=
